<?xml version="1.0" standalone="no"?>
<!DOCTYPE svg PUBLIC "-//W3C//DTD SVG 20010904//EN"
 "http://www.w3.org/TR/2001/REC-SVG-20010904/DTD/svg10.dtd">
<svg version="1.0" xmlns="http://www.w3.org/2000/svg"
 width="500.000000pt" height="500.000000pt" viewBox="0 0 500.000000 500.000000"
 preserveAspectRatio="xMidYMid meet">

<g transform="translate(0.000000,500.000000) scale(0.100000,-0.100000)"
fill="#000000" stroke="none">
<path d="M3137 4710 c-45 -27 -78 -40 -102 -40 -93 0 -144 -145 -89 -251 8
-16 19 -29 25 -29 6 0 6 6 -1 19 -5 11 -10 46 -10 79 0 83 29 125 90 132 25 3
64 17 88 33 90 59 122 60 122 7 0 -41 -21 -80 -64 -118 -34 -29 -117 -62 -158
-62 -22 0 -24 -16 -2 -24 24 -9 70 -7 119 5 122 31 210 195 140 264 -36 37
-79 33 -158 -15z"/>
<path d="M1865 4328 c-25 -7 -58 -30 -91 -63 -60 -60 -84 -122 -84 -218 0 -57
-1 -59 -22 -54 -13 3 -52 14 -88 23 -108 28 -197 3 -240 -68 -25 -41 -27 -145
-5 -208 8 -23 15 -44 15 -45 0 -1 -33 -5 -74 -8 -133 -10 -184 -54 -173 -149
11 -87 94 -217 179 -278 l37 -27 -25 -24 c-37 -34 -64 -92 -71 -150 -7 -59 9
-66 25 -11 13 44 61 119 80 127 8 3 5 -6 -7 -21 -55 -70 -67 -223 -27 -339 13
-38 29 -89 35 -112 6 -23 23 -55 36 -71 18 -21 34 -70 60 -177 19 -82 34 -150
32 -152 -5 -4 -190 517 -228 642 -24 77 -28 84 -28 52 -3 -196 560 -1864 819
-2426 87 -192 174 -335 189 -314 3 5 49 17 101 27 52 10 207 47 343 80 l249
62 9 -23 c11 -31 20 -29 17 3 -3 25 1 26 187 80 105 30 256 77 337 105 138 47
149 49 165 34 44 -44 103 -35 140 22 10 15 35 43 55 61 93 84 106 250 50 642
-17 124 -38 308 -47 410 -45 535 -175 1487 -251 1838 -13 63 -24 116 -24 120
0 3 -4 2 -9 -3 -6 -6 -6 -41 0 -90 22 -197 69 -668 66 -671 -2 -2 -13 43 -26
99 -13 56 -41 159 -62 229 -49 159 -79 288 -79 337 0 109 -72 221 -141 221
-67 -1 -137 -62 -199 -173 l-33 -58 -36 35 c-40 39 -96 66 -137 66 -77 0 -158
-52 -210 -134 l-27 -43 -44 31 c-41 28 -52 31 -121 31 -63 0 -88 -5 -135 -27
-99 -46 -235 -202 -225 -256 2 -12 9 -7 25 18 26 42 73 88 73 72 0 -6 -9 -34
-20 -63 -23 -57 -26 -33 36 -359 20 -107 38 -206 40 -220 2 -14 -27 93 -65
238 -63 237 -90 320 -91 284 -1 -58 202 -900 321 -1326 50 -183 109 -413 154
-601 46 -196 95 -374 155 -565 26 -85 51 -181 54 -213 4 -32 13 -68 21 -81
l15 -22 -302 -92 c-167 -50 -310 -93 -319 -97 -12 -4 -19 2 -27 22 l-10 29 61
-2 c61 -1 62 -1 104 45 43 45 44 47 39 102 -5 70 -73 272 -136 404 -26 55 -53
122 -59 149 -24 100 -213 680 -335 1032 -57 164 -189 676 -188 728 2 82 19 50
61 -117 162 -639 448 -1539 662 -2081 34 -88 64 -155 66 -150 2 6 -24 91 -58
190 -98 286 -253 757 -299 904 -23 74 -52 169 -65 210 -137 437 -395 1351
-395 1399 0 14 75 123 102 148 78 73 201 68 294 -10 38 -32 54 -34 54 -7 0 28
-58 90 -105 111 -50 23 -149 25 -199 4 -48 -20 -118 -85 -153 -141 -18 -29
-33 -42 -42 -39 -59 22 -178 46 -206 41 -27 -5 -39 -1 -75 29 -107 89 -189
257 -152 311 15 23 54 34 142 41 112 8 121 18 96 103 -23 79 -21 161 5 189 45
48 102 52 209 16 40 -14 81 -25 91 -25 30 0 42 30 50 126 6 80 11 103 35 142
73 118 256 125 447 19 102 -58 237 -203 237 -257 0 -24 17 -60 28 -60 4 0 7
24 7 53 0 69 42 152 110 216 69 65 124 93 190 93 77 1 107 -21 156 -114 48
-94 57 -96 164 -37 139 76 189 43 183 -124 -2 -63 0 -87 9 -87 18 0 43 55 50
108 10 91 -36 181 -102 198 -40 10 -109 -11 -174 -51 l-55 -35 -31 62 c-67
137 -193 172 -331 93 -55 -32 -142 -128 -169 -188 l-23 -48 -25 43 c-56 96
-183 196 -305 240 -67 25 -224 33 -287 16z m1452 -570 c41 -46 44 -61 15 -79
-24 -14 -30 -14 -59 -1 -30 14 -36 14 -68 -1 -75 -36 -85 -103 -51 -357 48
-364 77 -658 62 -625 -3 6 -14 89 -26 185 -11 96 -34 273 -50 393 -17 120 -30
221 -30 225 0 3 -5 1 -10 -4 -20 -20 62 -793 141 -1334 41 -286 114 -723 148
-895 82 -411 103 -502 125 -542 l24 -43 -106 -34 c-153 -49 -363 -109 -366
-105 -2 2 5 31 16 64 l20 59 -27 126 c-14 69 -32 154 -40 190 -8 36 -35 187
-60 335 -25 149 -56 329 -70 400 -13 72 -38 202 -54 290 -16 88 -48 260 -71
382 -24 126 -39 230 -35 240 5 11 20 -52 41 -167 126 -699 338 -1748 358
-1768 25 -25 -41 366 -219 1293 -20 105 -47 246 -60 315 -13 69 -40 210 -59
313 -60 312 -156 837 -156 852 0 3 6 5 14 5 8 0 28 22 46 50 62 96 139 142
203 121 18 -6 54 -32 80 -56 25 -25 54 -45 65 -45 23 0 50 29 87 95 38 67 59
93 97 122 40 29 49 29 75 1z m-736 -251 c31 -23 45 -43 50 -67 13 -61 51 -361
47 -365 -2 -2 -21 80 -42 183 -40 192 -51 221 -95 259 -40 35 -8 27 40 -10z
m-1009 -343 c30 -5 42 -13 49 -31 17 -46 12 -57 -17 -34 -15 12 -35 21 -45 21
-10 0 -28 14 -40 32 -20 27 -20 31 -5 25 10 -4 36 -10 58 -13z m1115 -136 c-3
-7 -5 -2 -5 12 0 14 2 19 5 13 2 -7 2 -19 0 -25z m-400 -320 c-3 -8 -6 -5 -6
6 -1 11 2 17 5 13 3 -3 4 -12 1 -19z m940 -50 c-3 -8 -6 -5 -6 6 -1 11 2 17 5
13 3 -3 4 -12 1 -19z m410 -80 c-3 -8 -6 -5 -6 6 -1 11 2 17 5 13 3 -3 4 -12
1 -19z m-1224 -241 c23 -171 17 -175 -26 -20 l-25 92 23 -15 c16 -10 25 -28
28 -57z m-847 -284 c3 -16 12 -50 20 -77 8 -27 14 -54 13 -60 0 -14 -58 134
-58 152 -2 24 19 12 25 -15z m1802 -338 c0 -59 0 -59 -18 40 -23 125 -23 145
0 75 11 -30 19 -82 18 -115z m9 -97 c-3 -8 -6 -5 -6 6 -1 11 2 17 5 13 3 -3 4
-12 1 -19z m-1318 -948 c0 -8 -6 0 -14 19 -8 18 -15 36 -15 40 1 13 29 -45 29
-59z"/>
</g>
</svg>
